<svg width="48" height="48" viewBox="0 0 48 48" fill="none" xmlns="http://www.w3.org/2000/svg">
<path d="M21.7971 4.20002C12.5971 5.20002 5.19709 12.6 4.19709 21.6C3.19709 31 8.59709 39.4 16.7971 42.6C17.3971 42.8 17.9971 42.4 17.9971 41.6V38.4C17.9971 38.4 17.1971 38.6 16.1971 38.6C13.3971 38.6 12.1971 36.2 11.9971 34.8C11.7971 34 11.3971 33.4 10.7971 32.8C10.1971 32.6 9.99709 32.6 9.99709 32.4C9.99709 32 10.5971 32 10.7971 32C11.9971 32 12.9971 33.4 13.3971 34C14.3971 35.6 15.5971 36 16.1971 36C16.9971 36 17.5971 35.8 17.9971 35.6C18.1971 34.2 18.7971 32.8 19.9971 32C15.3971 31 11.9971 28.4 11.9971 24C11.9971 21.8 12.9971 19.6 14.3971 18C14.1971 17.6 13.9971 16.6 13.9971 15.2C13.9971 14.4 13.9971 13.2 14.5971 12C14.5971 12 17.3971 12 20.1971 14.6C21.1971 14.2 22.5971 14 23.9971 14C25.3971 14 26.7971 14.2 27.9971 14.6C30.5971 12 33.5971 12 33.5971 12C33.9971 13.2 33.9971 14.4 33.9971 15.2C33.9971 16.8 33.7971 17.6 33.5971 18C34.9971 19.6 35.9971 21.6 35.9971 24C35.9971 28.4 32.5971 31 27.9971 32C29.1971 33 29.9971 34.8 29.9971 36.6V41.8C29.9971 42.4 30.5971 43 31.3971 42.8C38.7971 39.8 43.9971 32.6 43.9971 24.2C43.9971 12.2 33.7971 2.80002 21.7971 4.20002Z" fill="#718096"/>
</svg>
