<svg width="48" height="48" viewBox="0 0 48 48" fill="none" xmlns="http://www.w3.org/2000/svg">
<path d="M6 42V6H42V42H6Z" fill="#718096"/>
<path d="M29.5409 32.947C30.2329 34.071 30.9849 35.148 32.5779 35.148C33.9159 35.148 34.6179 34.483 34.6179 33.563C34.6179 32.462 33.8919 32.071 32.4199 31.43L31.6129 31.086C29.2839 30.098 27.7349 28.86 27.7349 26.245C27.7349 23.835 29.5799 22.001 32.4629 22.001C34.5159 22.001 35.9909 22.712 37.0549 24.574L34.5409 26.181C33.9879 25.193 33.3899 24.804 32.4629 24.804C31.5169 24.804 30.9179 25.401 30.9179 26.181C30.9179 27.145 31.5179 27.535 32.9029 28.132L33.7099 28.476C36.4549 29.645 38.0029 30.839 38.0029 33.523C38.0029 36.415 35.7189 38 32.6529 38C29.6539 38 27.9509 36.495 27.0029 34.632L29.5409 32.947ZM17.9549 33.029C18.4609 33.935 19.2299 34.632 20.3359 34.632C21.3939 34.632 22.0029 34.214 22.0029 32.589V22H25.3359V33.101C25.3359 36.468 23.3829 38 20.5309 38C17.9539 38 16.0939 36.254 15.3359 34.632L17.9549 33.029Z" fill="#AFBDFF"/>
</svg>
