<svg width="1440" height="1024" viewBox="0 0 1440 1024" fill="none" xmlns="http://www.w3.org/2000/svg">
<g clip-path="url(#clip0_152_47)">
<path d="M2041.34 164.393C2042.23 167.706 2042.69 171.121 2042.7 174.553V707.906C2042.7 714.752 2040.89 721.476 2037.46 727.399C2034.03 733.323 2029.1 738.236 2023.16 741.642L1575.51 999.374V1510.22C1575.51 1524.12 1568.12 1536.96 1556.06 1543.96L621.624 2081.88C619.485 2083.09 617.152 2083.87 614.819 2084.7C613.944 2084.99 613.117 2085.52 612.194 2085.77C605.662 2087.49 598.795 2087.49 592.263 2085.77C591.194 2085.48 590.222 2084.89 589.201 2084.5C587.062 2083.73 584.826 2083.05 582.784 2081.88L-351.459 1543.96C-357.394 1540.55 -362.325 1535.63 -365.756 1529.71C-369.186 1523.79 -370.995 1517.06 -371 1510.22V-89.839C-371 -93.339 -370.514 -96.7417 -369.639 -100.047C-369.347 -101.165 -368.667 -102.186 -368.278 -103.304C-367.549 -105.346 -366.868 -107.436 -365.799 -109.332C-365.07 -110.596 -364 -111.616 -363.125 -112.783C-362.007 -114.339 -360.986 -115.943 -359.674 -117.304C-358.556 -118.422 -357.097 -119.248 -355.834 -120.221C-354.424 -121.387 -353.16 -122.651 -351.556 -123.575H-351.507L115.639 -392.536C121.553 -395.94 128.258 -397.731 135.083 -397.731C141.907 -397.731 148.612 -395.94 154.527 -392.536L621.673 -123.575H621.77C623.325 -122.602 624.638 -121.387 626.048 -120.269C627.311 -119.297 628.721 -118.422 629.839 -117.353C631.2 -115.943 632.172 -114.339 633.339 -112.783C634.165 -111.616 635.284 -110.596 635.964 -109.332C637.082 -107.387 637.714 -105.346 638.492 -103.304C638.881 -102.186 639.561 -101.165 639.853 -99.9986C640.748 -96.686 641.205 -93.2704 641.214 -89.839V909.542L1030.49 685.399V174.504C1030.49 171.102 1030.97 167.65 1031.85 164.393C1032.19 163.227 1032.82 162.206 1033.21 161.088C1033.99 159.046 1034.67 156.956 1035.74 155.06C1036.46 153.796 1037.53 152.775 1038.36 151.609C1039.53 150.053 1040.5 148.449 1041.86 147.088C1042.98 145.97 1044.39 145.144 1045.65 144.171C1047.11 143.005 1048.37 141.741 1049.93 140.817H1049.98L1517.17 -128.144C1523.09 -131.552 1529.79 -133.347 1536.62 -133.347C1543.44 -133.347 1550.15 -131.552 1556.06 -128.144L2023.21 140.817C2024.86 141.789 2026.12 143.005 2027.58 144.123C2028.8 145.095 2030.21 145.97 2031.32 147.039C2032.69 148.449 2033.66 150.053 2034.83 151.609C2035.7 152.775 2036.77 153.796 2037.45 155.06C2038.57 156.956 2039.2 159.046 2039.98 161.088C2040.42 162.206 2041.05 163.227 2041.34 164.393V164.393ZM1964.83 685.399V241.878L1801.35 335.988L1575.51 466.021V909.542L1964.87 685.399H1964.83ZM1497.68 1487.71V1043.9L1275.53 1170.77L641.165 1532.82V1980.82L1497.68 1487.71ZM-293.126 -22.5137V1487.71L563.292 1980.77V1532.87L115.882 1279.66L115.736 1279.56L115.541 1279.47C114.034 1278.59 112.771 1277.33 111.361 1276.26C110.146 1275.29 108.736 1274.51 107.666 1273.44L107.569 1273.29C106.305 1272.08 105.43 1270.57 104.361 1269.21C103.389 1267.9 102.222 1266.78 101.444 1265.42L101.396 1265.27C100.521 1263.81 99.986 1262.06 99.354 1260.41C98.7221 1258.95 97.8957 1257.59 97.5068 1256.04V1255.99C97.0207 1254.14 96.9235 1252.2 96.7291 1250.3C96.5346 1248.84 96.1458 1247.38 96.1458 1245.93V201.629L-129.649 71.5475L-293.126 -22.465V-22.5137ZM135.131 -313.884L-254.092 -89.839L135.034 134.206L524.209 -89.8876L135.034 -313.884H135.131ZM337.545 1084.34L563.34 954.361V-22.5137L399.863 71.596L174.02 201.629V1178.5L337.545 1084.34ZM1536.62 -49.4924L1147.44 174.553L1536.62 398.598L1925.74 174.504L1536.62 -49.4924ZM1497.68 466.021L1271.84 335.988L1108.36 241.878V685.399L1334.15 815.383L1497.68 909.542V466.021ZM602.18 1465.5L1173.01 1139.61L1458.35 976.77L1069.47 752.871L621.721 1010.65L213.637 1245.59L602.18 1465.5Z" fill="#718096"/>
</g>
<defs>
<clipPath id="clip0_152_47">
<rect width="2418" height="2500" fill="white" transform="translate(-371 -406)"/>
</clipPath>
</defs>
</svg>
