<svg width="48" height="51" viewBox="0 0 48 51" fill="none" xmlns="http://www.w3.org/2000/svg">
<g filter="url(#filter0_d_152_5)">
<path d="M24.047 5.00001C22.492 5.00501 21.414 5.14201 20.111 5.36701C16.263 6.03701 15.562 7.44401 15.562 10.037V14H24.562V16H15.22H10.87C8.23395 16 5.92695 17.242 5.19595 20.219C4.36995 23.636 4.33295 25.776 5.19595 29.344C5.85095 32.005 7.29395 34 9.93095 34H13.563V28.896C13.563 25.93 16.249 23 19.327 23H26.563C29.086 23 31.563 21.138 31.563 18.623V10.037C31.563 7.59801 29.8039 5.77401 27.3449 5.36501C27.4059 5.35901 25.589 4.99401 24.047 5.00001ZM19.063 9.00001C19.884 9.00001 20.563 9.67701 20.563 10.502C20.563 11.335 19.884 12 19.063 12C18.226 12 17.563 11.336 17.563 10.502C17.563 9.68001 18.226 9.00001 19.063 9.00001Z" fill="#718096"/>
<path d="M23.0785 43C24.6335 42.995 25.7115 42.858 27.0145 42.633C30.8625 41.963 31.5635 40.556 31.5635 37.963V34H22.5635V32H31.9065H36.2565C38.8925 32 41.1995 30.758 41.9305 27.781C42.7565 24.364 42.7935 22.224 41.9305 18.656C41.2745 15.995 39.8315 14 37.1945 14H33.5625V19.104C33.5625 22.07 30.8765 25 27.7985 25H20.5625C18.0395 25 15.5625 26.862 15.5625 29.377V37.963C15.5625 40.402 17.3215 42.226 19.7805 42.635C19.7195 42.641 21.5365 43.006 23.0785 43ZM28.0635 39C27.2425 39 26.5635 38.323 26.5635 37.498C26.5635 36.665 27.2425 36 28.0635 36C28.9005 36 29.5635 36.664 29.5635 37.498C29.5635 38.32 28.8995 39 28.0635 39Z" fill="#718096"/>
</g>
<defs>
<filter id="filter0_d_152_5" x="-4" y="0" width="56" height="56" filterUnits="userSpaceOnUse" color-interpolation-filters="sRGB">
<feFlood flood-opacity="0" result="BackgroundImageFix"/>
<feColorMatrix in="SourceAlpha" type="matrix" values="0 0 0 0 0 0 0 0 0 0 0 0 0 0 0 0 0 0 127 0" result="hardAlpha"/>
<feOffset dy="4"/>
<feGaussianBlur stdDeviation="2"/>
<feComposite in2="hardAlpha" operator="out"/>
<feColorMatrix type="matrix" values="0 0 0 0 0 0 0 0 0 0 0 0 0 0 0 0 0 0 0.25 0"/>
<feBlend mode="normal" in2="BackgroundImageFix" result="effect1_dropShadow_152_5"/>
<feBlend mode="normal" in="SourceGraphic" in2="effect1_dropShadow_152_5" result="shape"/>
</filter>
</defs>
</svg>
