<svg width="40" height="40" viewBox="0 0 40 40" fill="none" xmlns="http://www.w3.org/2000/svg">
<path d="M20 28.9C8.598 28.9 0 25.17 0 20C0 14.83 8.598 11 20 11C31.402 11 40 14.83 40 20C40 25.17 31.402 28.9 20 28.9ZM20 13.932C10.271 13.932 2.875 17.198 2.875 20.063C2.875 22.928 10.271 26.068 20 26.068C29.729 26.068 37.125 22.802 37.125 19.937C37.125 17.072 29.729 13.932 20 13.932Z" fill="#4E7AB5"/>
<path d="M12.4028 38C12.4018 38 12.4028 38 12.4028 38C11.4718 38 10.6218 37.784 9.87478 37.358C8.65478 36.661 7.77978 35.43 7.34278 33.796C6.19678 29.514 8.04578 22.314 12.0558 15.452C16.7608 7.40699 23.0078 2.00299 27.5998 2.00299C28.5298 2.00299 29.3798 2.21899 30.1268 2.64499C31.3448 3.33999 32.2208 4.56999 32.6578 6.20299C33.8048 10.485 31.9548 17.686 27.9428 24.548C23.2418 32.594 16.9958 38 12.4028 38ZM27.5998 5.00299C24.7118 5.00299 19.1908 9.19599 14.6458 16.966C10.5228 24.022 9.31378 29.875 10.2418 33.02C10.4928 33.869 10.8468 34.458 11.3628 34.752C13.7238 36.1 20.1718 31.902 25.3538 23.035C29.4788 15.978 30.8138 10.25 29.7598 6.97999C29.4888 6.13899 29.1558 5.54499 28.6408 5.25199C28.3478 5.08399 28.0068 5.00299 27.5998 5.00299Z" fill="#4E7AB5"/>
<path d="M27.5998 37.997C23.0028 37.996 16.7568 32.592 12.0558 24.548C8.04578 17.686 6.19678 10.485 7.34278 6.204C7.77978 4.57 8.65478 3.339 9.87378 2.643C10.6218 2.216 11.4718 2 12.4008 2C16.9958 2 23.2408 7.406 27.9428 15.452C31.9538 22.313 33.8028 29.514 32.6568 33.797C32.2188 35.43 31.3438 36.66 30.1268 37.355C29.3798 37.781 28.5288 37.997 27.5998 37.997ZM12.4008 5C11.9938 5 11.6538 5.082 11.3608 5.248C10.8458 5.542 10.4868 6.129 10.2408 6.98C9.31278 10.188 10.5218 15.979 14.6448 23.035C19.1858 30.804 24.7078 34.997 27.5988 34.997C28.0068 34.997 28.3468 34.915 28.6398 34.748C29.1538 34.456 29.5228 33.872 29.7578 33.02C30.6248 29.874 29.4768 24.02 25.3528 16.965C20.8118 9.194 15.2908 5 12.4008 5Z" fill="#4E7AB5"/>
<path d="M23.5 20C23.5 21.935 21.935 23.5 20 23.5C18.065 23.5 16.5 21.935 16.5 20C16.5 18.065 18.065 16.5 20 16.5C21.935 16.5 23.5 18.065 23.5 20Z" fill="#AFBDFF"/>
<path d="M20 24C17.794 24 16 22.206 16 20C16 17.794 17.794 16 20 16C22.206 16 24 17.794 24 20C24 22.206 22.206 24 20 24ZM20 17C18.346 17 17 18.346 17 20C17 21.654 18.346 23 20 23C21.654 23 23 21.654 23 20C23 18.346 21.654 17 20 17Z" fill="#AFBDFF"/>
<path d="M20 28.068C9.346 28.068 1 24.524 1 20C1 15.476 9.346 11.932 20 11.932C30.654 11.932 39 15.476 39 20C39 24.524 30.654 28.068 20 28.068ZM20 12.932C10.243 12.932 2 16.169 2 20C2 23.831 10.243 27.068 20 27.068C29.757 27.068 38 23.832 38 20C38 16.168 29.757 12.932 20 12.932Z" fill="#718096"/>
<path d="M12.4037 37C12.4027 37 12.4037 37 12.4037 37C11.6487 37 10.9657 36.828 10.3707 36.489C9.37474 35.92 8.68174 34.927 8.30874 33.537C7.22774 29.5 9.03774 22.599 12.9187 15.956C17.3807 8.32999 23.4177 3.00299 27.6007 3.00299C28.3547 3.00299 29.0387 3.17499 29.6327 3.51399C30.6277 4.08199 31.3207 5.07399 31.6937 6.46199C32.7747 10.499 30.9647 17.4 27.0817 24.044C22.6227 31.672 16.5877 37 12.4037 37ZM27.6007 4.00299C23.8167 4.00299 18.0057 9.24199 13.7837 16.461C10.0887 22.786 8.27674 29.544 9.27574 33.279C9.57674 34.402 10.1117 35.189 10.8677 35.621C11.3087 35.872 11.8247 36 12.4027 36C16.1877 36 21.9977 30.76 26.2167 23.539C29.9137 17.213 31.7267 10.454 30.7257 6.72099C30.4257 5.59999 29.8907 4.81299 29.1357 4.38299C28.6947 4.13099 28.1787 4.00299 27.6007 4.00299Z" fill="#718096"/>
<path d="M27.5998 36.997C23.4128 36.996 17.3758 31.67 12.9188 24.044C9.03683 17.401 7.22783 10.5 8.30883 6.463C8.68083 5.073 9.37383 4.08 10.3708 3.511C10.9648 3.172 11.6478 3 12.4008 3C16.5858 3 22.6218 8.328 27.0798 15.956C30.9628 22.598 32.7718 29.499 31.6898 33.538C31.3188 34.927 30.6258 35.919 29.6308 36.486C29.0368 36.825 28.3538 36.997 27.5998 36.997ZM12.4008 4C11.8238 4 11.3068 4.128 10.8658 4.379C10.1098 4.811 9.57483 5.598 9.27383 6.721C8.27483 10.455 10.0868 17.214 13.7818 23.539C18.0008 30.757 23.8128 35.996 27.5998 35.997C28.1778 35.997 28.6948 35.869 29.1358 35.617C29.8898 35.187 30.4248 34.4 30.7248 33.279C31.7248 29.544 29.9128 22.785 26.2168 16.461C21.9968 9.241 16.1878 4 12.4008 4Z" fill="#718096"/>
</svg>
