<svg width="50" height="52" viewBox="0 0 50 52" fill="none" xmlns="http://www.w3.org/2000/svg">
<path fill-rule="evenodd" clip-rule="evenodd" d="M49.626 11.564C49.6444 11.6321 49.6538 11.7024 49.654 11.773V22.745C49.654 22.8858 49.6168 23.0241 49.5462 23.146C49.4757 23.2679 49.3742 23.3689 49.252 23.439L40.043 28.741V39.25C40.043 39.536 39.891 39.8 39.643 39.944L20.42 51.01C20.376 51.035 20.328 51.051 20.28 51.068C20.262 51.074 20.245 51.085 20.226 51.09C20.0916 51.1254 19.9504 51.1254 19.816 51.09C19.794 51.084 19.774 51.072 19.753 51.064C19.709 51.048 19.663 51.034 19.621 51.01L0.402 39.944C0.279907 39.8739 0.178461 39.7728 0.107885 39.6509C0.0373084 39.5291 9.67394e-05 39.3908 0 39.25L0 6.33399C0 6.26199 0.01 6.19199 0.028 6.12399C0.034 6.10099 0.048 6.07999 0.056 6.05699C0.071 6.01499 0.085 5.97199 0.107 5.93299C0.122 5.90699 0.144 5.88599 0.162 5.86199C0.185 5.82999 0.206 5.79699 0.233 5.76899C0.256 5.74599 0.286 5.72899 0.312 5.70899C0.341 5.68499 0.367 5.65899 0.4 5.63999H0.401L10.011 0.106993C10.1327 0.0369738 10.2706 0.00012207 10.411 0.00012207C10.5514 0.00012207 10.6893 0.0369738 10.811 0.106993L20.421 5.63999H20.423C20.455 5.65999 20.482 5.68499 20.511 5.70799C20.537 5.72799 20.566 5.74599 20.589 5.76799C20.617 5.79699 20.637 5.82999 20.661 5.86199C20.678 5.88599 20.701 5.90699 20.715 5.93299C20.738 5.97299 20.751 6.01499 20.767 6.05699C20.775 6.07999 20.789 6.10099 20.795 6.12499C20.8134 6.19314 20.8228 6.2634 20.823 6.33399V26.893L28.831 22.282V11.772C28.831 11.702 28.841 11.631 28.859 11.564C28.866 11.54 28.879 11.519 28.887 11.496C28.903 11.454 28.917 11.411 28.939 11.372C28.954 11.346 28.976 11.325 28.993 11.301C29.017 11.269 29.037 11.236 29.065 11.208C29.088 11.185 29.117 11.168 29.143 11.148C29.173 11.124 29.199 11.098 29.231 11.079H29.232L38.843 5.54599C38.9646 5.47588 39.1026 5.43897 39.243 5.43897C39.3834 5.43897 39.5214 5.47588 39.643 5.54599L49.253 11.079C49.287 11.099 49.313 11.124 49.343 11.147C49.368 11.167 49.397 11.185 49.42 11.207C49.448 11.236 49.468 11.269 49.492 11.301C49.51 11.325 49.532 11.346 49.546 11.372C49.569 11.411 49.582 11.454 49.598 11.496C49.607 11.519 49.62 11.54 49.626 11.564V11.564ZM48.052 22.282V13.158L44.689 15.094L40.043 17.769V26.893L48.053 22.282H48.052ZM38.442 38.787V29.657L33.872 32.267L20.822 39.715V48.931L38.442 38.787ZM1.602 7.71899V38.787L19.22 48.93V39.716L10.016 34.507L10.013 34.505L10.009 34.503C9.978 34.485 9.952 34.459 9.923 34.437C9.898 34.417 9.869 34.401 9.847 34.379L9.845 34.376C9.819 34.351 9.801 34.32 9.779 34.292C9.759 34.265 9.735 34.242 9.719 34.214L9.718 34.211C9.7 34.181 9.689 34.145 9.676 34.111C9.663 34.081 9.646 34.053 9.638 34.021V34.02C9.628 33.982 9.626 33.942 9.622 33.903C9.618 33.873 9.61 33.843 9.61 33.813V33.811V12.33L4.965 9.65399L1.602 7.71999V7.71899ZM10.412 1.72499L2.405 6.33399L10.41 10.943L18.416 6.33299L10.41 1.72499H10.412ZM14.576 30.489L19.221 27.815V7.71899L15.858 9.65499L11.212 12.33V32.426L14.576 30.489ZM39.243 7.16399L31.237 11.773L39.243 16.382L47.248 11.772L39.243 7.16399V7.16399ZM38.442 17.769L33.796 15.094L30.433 13.158V22.282L35.078 24.956L38.442 26.893V17.769ZM20.02 38.33L31.763 31.626L37.633 28.276L29.633 23.67L20.422 28.973L12.027 33.806L20.02 38.33V38.33Z" fill="#718096"/>
</svg>
