<svg width="48" height="48" viewBox="0 0 48 48" fill="none" xmlns="http://www.w3.org/2000/svg">
<path d="M44.0031 11.11V36.89C44.0031 38.16 43.2131 39.29 42.0231 39.71L33.2031 43.85L34.0031 33V15L33.2031 4.15002L42.0231 8.29002C43.2131 8.71002 44.0031 9.84002 44.0031 11.11Z" fill="#718096"/>
<path d="M9.00139 33.896L34.0014 15V5.35297C34.0014 4.15497 32.5194 3.59497 31.7264 4.49297L4.65939 29.239C3.75939 30.069 3.81039 31.506 4.76639 32.271C4.76639 32.271 6.09039 33.503 6.56939 33.845C7.30539 34.37 8.27239 34.43 9.00139 33.896Z" fill="#718096"/>
<path d="M9.00139 14.104L34.0014 33V42.647C34.0014 43.845 32.5194 44.405 31.7264 43.507L4.65939 18.761C3.75939 17.931 3.81039 16.494 4.76639 15.729C4.76639 15.729 6.09039 14.497 6.56939 14.155C7.30539 13.63 8.27239 13.57 9.00139 14.104Z" fill="#718096"/>
</svg>
