<svg width="20" height="20" viewBox="0 0 20 20 fill="none" xmlns="http://www.w3.org/2000/svg">
<g clip-path="url(#clip0_63_29)">
<path d="M47.53 61.26L47.68 61.41C49.2845 63.0983 50.1642 65.3478 50.1305 67.6767C50.0969 70.0056 49.1526 72.2287 47.5 73.87C47.5 73.87 47.39 74 47.34 74.03C45.664 75.6331 43.4289 76.5194 41.1097 76.5007C38.7905 76.4821 36.57 75.5598 34.92 73.93C25.26 65.07 11.33 53.93 2.82 44.68C1.92032 43.8371 1.20515 42.8168 0.719622 41.6835C0.234095 40.5503 -0.0112434 39.3287 -0.000907177 38.0959C0.00942902 36.8631 0.275215 35.6458 0.779676 34.5208C1.28414 33.3959 2.01632 32.3877 2.93001 31.56C8.34 24.85 27.37 9.41 34.93 2.56C36.4456 1.08664 38.4347 0.198674 40.5435 0.0540468C42.6523 -0.0905805 44.744 0.51751 46.4466 1.77015C48.1492 3.02279 49.3523 4.83876 49.8418 6.89504C50.3313 8.95131 50.0755 11.1146 49.12 13C49.0156 13.2163 48.8655 13.4074 48.68 13.56L21.68 38.34C26 42.53 29.77 45.65 33.54 48.77C38.4294 52.6732 43.1029 56.8394 47.54 61.25L47.53 61.26ZM75.35 61.26L75.2 61.41C73.5955 63.0983 72.7159 65.3478 72.7495 67.6767C72.7831 70.0056 73.7274 72.2287 75.38 73.87C75.38 73.87 75.49 74 75.54 74.03C77.2179 75.6451 79.4615 76.5389 81.7904 76.5202C84.1192 76.5016 86.3482 75.5718 88 73.93C97.66 65.07 111.59 53.93 120.1 44.68C121 43.8377 121.716 42.818 122.203 41.6852C122.689 40.5523 122.935 39.3309 122.926 38.0981C122.916 36.8653 122.652 35.6478 122.148 34.5224C121.644 33.3971 120.913 32.3884 120 31.56C114.59 24.85 95.56 9.41 88 2.56C86.4926 1.04697 84.4929 0.124286 82.3635 -0.0406889C80.2342 -0.205664 78.1162 0.397993 76.3937 1.66079C74.6713 2.92359 73.4585 4.76189 72.9753 6.84226C72.4921 8.92264 72.7705 11.1073 73.76 13C73.8643 13.2136 74.0105 13.4041 74.19 13.56L101.19 38.34C96.87 42.53 93.09 45.65 89.33 48.77C84.4406 52.6732 79.7671 56.8394 75.33 61.25L75.35 61.26Z" fill="#718096"/>
</g>
<defs>
<clipPath id="clip0_63_29">
<rect width="122.88" height="76.5" fill="white"/>
</clipPath>
</defs>
</svg>
